<svg width="18" height="20" viewBox="0 0 18 20" fill="#3E4E5D" xmlns="http://www.w3.org/2000/svg">
    <path fill-rule="evenodd" clip-rule="evenodd" d="M5.13221 12.4207C5.13221 11.8947 5.005 11.4993 4.7499 11.2333V11.234C4.49481 10.9673 4.1401 10.834 3.68644 10.834H2.69702C2.63913 10.834 2.59606 10.8473 2.56913 10.8727C2.54086 10.8987 2.5274 10.9407 2.5274 10.998V13.8447C2.5274 13.902 2.54154 13.944 2.56913 13.9693C2.59606 13.9953 2.63913 14.0073 2.69702 14.0073H3.68644C4.1401 14.0073 4.49481 13.8747 4.7499 13.6087C5.00433 13.3427 5.13221 12.9467 5.13221 12.4207ZM3.12779 13.504V11.3373H3.67231C3.94019 11.3373 4.14885 11.428 4.29692 11.61C4.445 11.7907 4.51904 12.0613 4.51904 12.4207C4.51904 12.7807 4.445 13.0513 4.29692 13.2327C4.14885 13.414 3.94019 13.504 3.67231 13.504H3.12779Z" />
    <path fill-rule="evenodd" clip-rule="evenodd" d="M8.60596 12.4167C8.60596 11.89 8.48144 11.49 8.2324 11.2153C7.98404 10.9407 7.62663 10.8027 7.15952 10.8027C6.6924 10.8027 6.33433 10.9413 6.08394 11.2167C5.83356 11.494 5.70836 11.8933 5.70836 12.4167C5.70836 12.942 5.83356 13.344 6.08394 13.622C6.33433 13.9007 6.6924 14.0393 7.15952 14.0393C7.62663 14.0393 7.98337 13.9007 8.2324 13.622C8.48144 13.344 8.60596 12.9433 8.60596 12.4167ZM6.32221 12.4167C6.32221 12.054 6.39288 11.778 6.53423 11.5887C6.67625 11.4 6.8849 11.3053 7.15952 11.3053C7.43077 11.3053 7.63808 11.4 7.77942 11.5887C7.92144 11.778 7.99279 12.054 7.99279 12.4167C7.99279 12.782 7.92144 13.06 7.77942 13.25C7.6374 13.4413 7.43077 13.5367 7.15952 13.5367C6.88423 13.5367 6.67625 13.4413 6.53423 13.25C6.39288 13.06 6.32221 12.782 6.32221 12.4167Z"/>
    <path d="M11.4914 10.9547C11.3986 10.908 11.2801 10.8707 11.134 10.8433C10.9893 10.816 10.846 10.8027 10.7066 10.8027C9.69635 10.8027 9.19154 11.3407 9.19154 12.4167C9.19154 12.972 9.31336 13.382 9.55769 13.6447C9.80202 13.908 10.1783 14.04 10.6885 14.04C10.8409 14.0391 10.9928 14.0235 11.1421 13.9933C11.2765 13.9704 11.4068 13.9277 11.5285 13.8667C11.6294 13.8127 11.6806 13.7507 11.6806 13.6813C11.6806 13.654 11.6705 13.612 11.6469 13.556C11.6247 13.5007 11.5944 13.4507 11.5574 13.4073C11.5204 13.3627 11.4861 13.3413 11.4524 13.3413C11.417 13.3469 11.3829 13.3591 11.3521 13.3773C11.2579 13.4227 11.1576 13.4607 11.0539 13.4907C10.9503 13.5213 10.8291 13.536 10.6885 13.536C10.3923 13.536 10.1702 13.444 10.0248 13.2593C9.87875 13.0753 9.80471 12.796 9.80471 12.4207C9.80471 12.0433 9.87875 11.7627 10.0248 11.58C10.1702 11.3973 10.3963 11.3053 10.7013 11.3053C10.8305 11.3053 10.9415 11.3173 11.0358 11.342C11.13 11.3667 11.2101 11.394 11.2734 11.4267C11.3085 11.4459 11.3455 11.4615 11.3837 11.4733C11.414 11.4733 11.4484 11.4507 11.4867 11.4053C11.5268 11.3577 11.5607 11.3053 11.5877 11.2493C11.6123 11.2054 11.627 11.1567 11.6308 11.1067C11.6308 11.052 11.5843 11.0013 11.4914 10.9547Z"/>
    <path fill-rule="evenodd" clip-rule="evenodd" d="M17.2718 5.752H17.2712L17.469 5.94267V6.40667L17.5 18.4313C17.5 19.296 16.7973 20 15.9324 20H5.03327C4.16904 20 3.46702 19.296 3.46769 18.4313V16.2693H1.75808C0.788846 16.2693 0 15.48 0 14.5093V10.1293C0 9.15933 0.788846 8.36933 1.75808 8.36933H3.46702L3.43606 1.56933C3.43606 0.704 4.13942 0 5.00231 0H11.2929L17.2718 5.752ZM15.9331 19.3447C16.4365 19.3447 16.8458 18.9353 16.8458 18.4313L16.8148 6.40667H12.4021C11.5392 6.40667 10.8365 5.70267 10.8365 4.83667V0.655333H5.00231C4.49952 0.655333 4.09029 1.06533 4.09029 1.56933L4.12125 8.36933H12.2089C13.1782 8.36933 13.967 9.15933 13.967 10.1293V14.5093C13.967 15.48 13.1782 16.27 12.2089 16.27H4.12192V18.4313C4.12103 18.6722 4.2166 18.9036 4.38768 19.0748C4.55877 19.246 4.79142 19.3431 5.03462 19.3447H15.9331ZM0.654231 14.5093C0.654231 15.1187 1.14962 15.6147 1.75808 15.6147H12.2083C12.8167 15.6147 13.3121 15.1187 13.3121 14.5093V10.1293C13.3121 9.52 12.8167 9.02467 12.2083 9.02467H1.75808C1.46388 9.02643 1.18242 9.14374 0.975462 9.35085C0.768508 9.55796 0.652977 9.83794 0.654231 10.1293V14.5093ZM11.4914 1.09933L11.4894 1.09667V4.83667C11.4878 5.07755 11.5828 5.3092 11.7536 5.48072C11.9244 5.65223 12.1569 5.74957 12.4001 5.75133H16.3268L11.4914 1.09933Z"/>
</svg>
